<?xml version="1.0" encoding="UTF-8" standalone="no"?>
<svg
   version="1.0"
   width="1024.000000pt"
   height="1024.000000pt"
   viewBox="0 0 1024.000000 1024.000000"
   preserveAspectRatio="xMidYMid meet"
   id="svg14"
   sodipodi:docname="marker.svg"
   inkscape:version="1.4 (86a8ad7, 2024-10-11)"
   xmlns:inkscape="http://www.inkscape.org/namespaces/inkscape"
   xmlns:sodipodi="http://sodipodi.sourceforge.net/DTD/sodipodi-0.dtd"
   xmlns="http://www.w3.org/2000/svg"
   xmlns:svg="http://www.w3.org/2000/svg">
  <defs
     id="defs14" />
  <sodipodi:namedview
     id="namedview14"
     pagecolor="#ffffff"
     bordercolor="#cccccc"
     borderopacity="1"
     inkscape:showpageshadow="0"
     inkscape:pageopacity="1"
     inkscape:pagecheckerboard="0"
     inkscape:deskcolor="#d1d1d1"
     inkscape:document-units="pt"
     showgrid="false"
     inkscape:zoom="0.41794568"
     inkscape:cx="620.89408"
     inkscape:cy="628.07205"
     inkscape:window-width="1920"
     inkscape:window-height="1009"
     inkscape:window-x="1912"
     inkscape:window-y="-8"
     inkscape:window-maximized="1"
     inkscape:current-layer="g14" />
  <g
     transform="translate(0.000000,1024.000000) scale(0.100000,-0.100000)"
     fill="#000000"
     stroke="none"
     id="g14">
    <path
       d="m 4912.7902,7480.438 c -554,-82 -1017,-368 -1317,-813 -313,-467 -383,-1041 -193,-1591 120,-348 397,-774 929,-1425 101,-124 625,-750 776,-927 l 25,-30 226,264 c 1196,1399 1516,1892 1604,2474 19,125 19,378 0,509 -68,479 -338,915 -746,1207 -191,137 -476,258 -725,309 -89,18 -148,22 -329,24 -121,2 -233,1 -250,-1 z m 151,-523 c 154,-68 224,-255 151,-403 -38,-77 -103,-133 -185,-158 -35,-11 -72,-20 -81,-20 -15,0 -15,-16 4,-211 l 20,-211 315,3 c 244,3 320,1 338,-9 29,-17 62,-70 62,-100 0,-32 -25,-76 -56,-101 -26,-20 -38,-21 -332,-21 h -305 l 6,-67 c 4,-38 7,-80 7,-95 v -28 l 387,-2 387,-3 183,-355 c 100,-195 184,-359 186,-365 2,-5 38,5 80,23 87,36 117,39 158,15 61,-36 74,-124 26,-178 -25,-28 -242,-125 -297,-132 -83,-11 -96,8 -354,525 l -117,232 h -382 c -366,0 -383,1 -415,20 -18,11 -39,35 -46,53 -8,17 -21,113 -30,212 -61,693 -87,945 -103,995 -25,81 -22,164 9,230 72,154 233,217 384,151 z m -431,-1206 6,-80 -62,-45 c -118,-85 -213,-227 -256,-380 -28,-103 -23,-291 10,-395 37,-113 90,-198 177,-285 132,-131 279,-197 465,-207 284,-15 524,127 656,390 27,55 49,105 49,113 0,32 18,8 74,-100 43,-83 57,-119 53,-137 -20,-78 -178,-259 -292,-336 -220,-148 -479,-193 -736,-128 -97,24 -273,116 -356,185 -160,133 -258,288 -315,498 -32,119 -30,323 5,455 60,227 214,430 422,558 l 80,50 6,-38 c 4,-21 10,-74 14,-118 z"
       id="path1"
       style="fill:#1c85bf;fill-opacity:1" />
  </g>
</svg>
