<?xml version="1.0" encoding="UTF-8" standalone="no"?>
<svg
   version="1.0"
   width="1024.000000pt"
   height="1024.000000pt"
   viewBox="0 0 1024.000000 1024.000000"
   preserveAspectRatio="xMidYMid meet"
   id="svg14"
   sodipodi:docname="Park4Everyone.svg"
   inkscape:version="1.4 (86a8ad7, 2024-10-11)"
   xmlns:inkscape="http://www.inkscape.org/namespaces/inkscape"
   xmlns:sodipodi="http://sodipodi.sourceforge.net/DTD/sodipodi-0.dtd"
   xmlns="http://www.w3.org/2000/svg"
   xmlns:svg="http://www.w3.org/2000/svg">
  <defs
     id="defs14" />
  <sodipodi:namedview
     id="namedview14"
     pagecolor="#ffffff"
     bordercolor="#cccccc"
     borderopacity="1"
     inkscape:showpageshadow="0"
     inkscape:pageopacity="1"
     inkscape:pagecheckerboard="0"
     inkscape:deskcolor="#d1d1d1"
     inkscape:document-units="pt"
     showgrid="false"
     inkscape:zoom="0.59106445"
     inkscape:cx="682.66667"
     inkscape:cy="682.66667"
     inkscape:window-width="1920"
     inkscape:window-height="1009"
     inkscape:window-x="1912"
     inkscape:window-y="-8"
     inkscape:window-maximized="1"
     inkscape:current-layer="g14" />
  <g
     transform="translate(0.000000,1024.000000) scale(0.100000,-0.100000)"
     fill="#000000"
     stroke="none"
     id="g14">
    <path
       d="M4895 9014 c-554 -82 -1017 -368 -1317 -813 -313 -467 -383 -1041 -193 -1591 120 -348 397 -774 929 -1425 101 -124 625 -750 776 -927 l25 -30 226 264 c1196 1399 1516 1892 1604 2474 19 125 19 378 0 509 -68 479 -338 915 -746 1207 -191 137 -476 258 -725 309 -89 18 -148 22 -329 24 -121 2 -233 1 -250 -1z m151 -523 c154 -68 224 -255 151 -403 -38 -77 -103 -133 -185 -158 -35 -11 -72 -20 -81 -20 -15 0 -15 -16 4 -211 l20 -211 315 3 c244 3 320 1 338 -9 29 -17 62 -70 62 -100 0 -32 -25 -76 -56 -101 -26 -20 -38 -21 -332 -21 l-305 0 6 -67 c4 -38 7 -80 7 -95 l0 -28 387 -2 387 -3 183 -355 c100 -195 184 -359 186 -365 2 -5 38 5 80 23 87 36 117 39 158 15 61 -36 74 -124 26 -178 -25 -28 -242 -125 -297 -132 -83 -11 -96 8 -354 525 l-117 232 -382 0 c-366 0 -383 1 -415 20 -18 11 -39 35 -46 53 -8 17 -21 113 -30 212 -61 693 -87 945 -103 995 -25 81 -22 164 9 230 72 154 233 217 384 151z m-431 -1206 l6 -80 -62 -45 c-118 -85 -213 -227 -256 -380 -28 -103 -23 -291 10 -395 37 -113 90 -198 177 -285 132 -131 279 -197 465 -207 284 -15 524 127 656 390 27 55 49 105 49 113 0 32 18 8 74 -100 43 -83 57 -119 53 -137 -20 -78 -178 -259 -292 -336 -220 -148 -479 -193 -736 -128 -97 24 -273 116 -356 185 -160 133 -258 288 -315 498 -32 119 -30 323 5 455 60 227 214 430 422 558 l80 50 6 -38 c4 -21 10 -74 14 -118z"
       id="path1"
       style="fill:#1c85bf;fill-opacity:1" />
    <path
       d="m 3337.0496,3720.2396 v -355.386 h 66.3908 66.3908 v 88.2607 88.2607 l 30.4617,29.6806 29.6806,29.6806 15.6214,-22.651 c 8.5917,-11.716 42.9587,-64.8287 75.7636,-117.1603 l 60.1423,-96.0713 h 74.2015 73.4204 l -19.5267,31.2427 c -10.935,17.1835 -58.5801,89.8228 -106.2253,161.6811 l -85.9175,129.6574 25.7752,28.1185 c 14.0592,15.6214 55.4559,58.5801 92.1661,96.8525 l 66.3908,67.9529 h -74.9826 -74.2015 l -89.8229,-99.1957 -89.0418,-98.4146 -2.3431,196.0481 -1.5622,196.8293 h -66.3908 -66.3908 z"
       id="path2"
       style="fill:#08314e;fill-opacity:1;stroke-width:0.781069" />
    <path
       d="m 4469.5988,3714.7722 v -349.9186 h 238.2259 238.2258 v 60.9233 60.9233 h -167.9297 l -167.9297,-0.7811 v 88.2607 87.4798 h 144.4977 144.4977 v 58.58 58.5802 h -144.4977 -144.4977 v 82.0122 82.0122 l 160.9001,1.5621 160.9001,2.3432 v 57.018 57.018 l -231.1963,1.5621 -231.1962,1.5622 z"
       id="path3"
       style="fill:#08314e;fill-opacity:1;stroke-width:0.781069" />
    <path
       d="m 1860.8303,3712.429 v -347.5754 h 70.2962 70.2961 v 124.1898 124.1899 l 115.5981,3.1243 c 131.2196,3.1242 162.4623,13.2782 219.4803,70.2962 42.9587,43.7398 58.5801,92.166 53.8937,170.2729 -5.4675,96.0713 -47.6452,153.8704 -135.1248,186.6753 -39.0534,14.8403 -60.1423,16.4024 -218.6992,16.4024 h -175.7404 z m 333.5162,220.2613 c 39.0534,-20.3078 57.018,-49.2074 57.018,-90.604 0,-82.0121 -51.5505,-117.1602 -173.3971,-117.9413 h -76.5448 v 107.7875 c 0,59.3611 1.5621,110.1306 3.9053,112.4738 2.3433,1.5622 39.8346,3.1243 83.5744,2.3432 57.018,-0.781 87.4796,-5.4675 105.4442,-14.0592 z"
       id="path4"
       style="fill:#08314e;fill-opacity:1;stroke-width:0.781069" />
    <path
       d="m 4020.4845,3815.53 -153.0895,-228.8531 2.3433,-42.9587 2.3431,-42.1777 148.4031,-3.9053 148.4029,-3.9054 v -62.4854 -62.4855 l 64.8287,-2.3432 64.0476,-2.3432 v 67.1719 66.3908 h 39.0535 39.0534 v 54.6748 54.6747 h -39.0534 -39.0535 v 218.6992 218.6992 h -61.7043 -62.4855 z m 149.184,21.0889 c -2.3431,-7.0296 -4.6864,-60.9233 -4.6864,-121.0656 v -108.5686 h -78.8879 c -42.9588,0 -77.3257,3.1243 -75.7637,6.2486 7.8107,20.3078 151.5273,235.1016 157.7758,235.8827 3.1244,0 3.9054,-5.4675 1.5622,-12.4971 z"
       id="path5"
       style="fill:#08314e;fill-opacity:1;stroke-width:0.781069" />
    <path
       d="m 2579.4132,3888.9505 c -39.0534,-11.7161 -69.5151,-32.0238 -96.8524,-64.8287 -15.6214,-17.9646 -27.3374,-37.4913 -26.5563,-42.9588 1.562,-6.2485 21.0887,-18.7456 42.9587,-29.6806 40.6155,-18.7457 41.3966,-18.7457 49.9884,-3.1243 14.0592,27.3375 54.6747,46.0831 98.4146,46.0831 55.4559,0 88.2607,-27.3374 93.7282,-79.669 l 3.9053,-35.1481 -88.2607,-3.9054 c -103.101,-3.9053 -144.4976,-18.7456 -184.3321,-63.2665 -75.7637,-86.6986 -35.1481,-221.0424 74.9825,-247.5986 71.0773,-17.1836 139.8113,-0.7811 180.4269,42.9587 l 19.5267,21.0888 3.9053,-30.4616 3.9053,-29.6806 h 57.018 57.018 l -0.7811,198.3914 c -0.7811,179.6457 -1.5621,200.7346 -15.6213,227.2909 -20.3078,39.8344 -65.6098,75.7636 -112.4738,89.8228 -40.6156,12.4971 -127.3142,14.8403 -160.9002,4.6865 z m 164.0244,-333.5163 c 0,-40.6155 -2.3432,-46.083 -30.4617,-74.2015 -29.6805,-29.6805 -44.5209,-34.3669 -94.5092,-30.4616 -32.0239,2.3432 -54.6748,29.6805 -54.6748,64.0476 0,61.7044 31.2427,83.5743 123.4088,84.3553 h 56.2369 z"
       id="path6"
       style="fill:#08314e;fill-opacity:1;stroke-width:0.781069" />
    <path
       d="m 3171.4631,3880.3587 c -16.4024,-8.5918 -37.4913,-30.4616 -48.4263,-48.4262 l -20.3077,-33.586 v 41.3966 40.6156 h -62.4855 -62.4855 v -257.7526 -258.5336 l 64.8287,2.3432 64.0476,2.3432 3.9054,164.0244 c 3.1243,136.6869 6.2485,167.9296 17.9645,189.0185 18.7457,34.3671 53.8938,51.5505 95.2904,46.8641 l 32.8049,-3.1243 13.2781,43.7399 c 7.8107,24.2131 14.8403,49.2072 17.1835,56.2369 2.3433,9.3728 -3.9053,15.6214 -21.0889,21.8699 -35.148,12.4971 -60.9233,10.1539 -94.5092,-7.0296 z"
       id="path7"
       style="fill:#08314e;fill-opacity:1;stroke-width:0.781069" />
    <path
       d="m 5682.5981,3885.0451 c -69.5151,-22.651 -111.6929,-61.7044 -145.2787,-135.9059 -13.2782,-29.6806 -16.4025,-51.5505 -17.1836,-118.7224 0,-77.3257 1.5621,-85.1365 25.7752,-134.3437 44.521,-91.3851 117.1604,-134.3438 228.072,-134.3438 78.888,0 129.6574,18.7456 174.1783,64.0476 l 28.1185,28.8995 -33.586,39.0534 -34.367,39.0535 -19.5267,-21.0889 c -57.018,-60.9233 -151.5273,-63.2666 -206.202,-4.6864 -19.5267,21.0889 -33.586,53.8938 -33.586,81.2311 v 18.7456 h 163.2433 163.2433 l 4.6864,18.7457 c 5.4675,21.8699 -5.4675,107.7874 -17.1835,137.468 -15.6213,39.8345 -54.6748,82.7933 -94.5093,103.8821 -49.2073,27.3375 -133.5627,35.1481 -185.8942,17.9646 z m 126.533,-95.2904 c 28.1185,-13.2781 50.7694,-50.7694 50.7694,-84.3553 v -20.3078 h -105.4442 c -100.7578,0 -105.4442,0.7811 -105.4442,15.6213 0,9.3729 7.0296,29.6807 14.8402,46.0831 25.7753,49.9884 89.8229,69.5151 145.2788,42.9587 z"
       id="path8"
       style="fill:#08314e;fill-opacity:1;stroke-width:0.781069" />
    <path
       d="m 6257.4643,3878.0155 c -14.0591,-9.3728 -34.3669,-29.6806 -43.7398,-43.7399 l -17.9645,-26.5563 v 36.7103 35.9291 h -62.4855 -62.4855 v -257.7526 -258.5336 l 61.7044,2.3432 62.4855,2.3432 3.1243,156.2136 c 3.9053,171.054 9.3728,198.3915 49.2073,229.6342 17.1835,13.2782 29.6806,16.4024 60.9233,14.8403 l 39.8345,-2.3432 17.1835,54.6747 c 10.1539,30.4617 17.9646,55.4559 17.9646,56.237 0,3.9054 -60.9234,17.9645 -78.8879,17.9645 -10.9349,0 -32.0238,-7.8106 -46.8642,-17.9645 z"
       id="path9"
       style="fill:#08314e;fill-opacity:1;stroke-width:0.781069" />
    <path
       d="m 7135.3852,3888.9505 c -91.3849,-23.4321 -167.1485,-99.9768 -185.8942,-188.2376 -10.9349,-49.9883 -5.4675,-135.9058 11.716,-181.9889 76.5447,-203.8588 386.6289,-214.7938 484.2624,-17.1835 17.1836,34.3671 19.5267,49.2073 19.5267,128.8763 0,78.8879 -2.3431,93.7282 -17.9645,123.4088 -48.4262,90.604 -121.0656,135.9059 -223.3856,139.0302 -35.1481,1.5622 -74.2015,-0.7811 -88.2608,-3.9053 z m 138.2491,-111.6929 c 42.1778,-28.8995 58.5802,-69.515 58.5802,-146.8408 0,-52.3316 -3.1242,-73.4204 -16.4024,-97.6335 -23.4321,-44.5209 -58.5802,-66.3908 -108.5685,-66.3908 -81.2311,0 -128.8764,59.3611 -128.8764,161.6811 0,110.9117 43.7399,165.5865 133.5628,166.3676 24.9941,0 43.7398,-5.4675 61.7043,-17.1836 z"
       id="path10"
       style="fill:#08314e;fill-opacity:1;stroke-width:0.781069" />
    <path
       d="m 7785.2342,3884.264 c -17.9646,-6.2485 -45.3019,-25.7753 -64.0476,-46.864 l -33.5859,-36.7102 v 39.8344 39.8345 h -62.4855 -62.4855 v -257.7526 -257.7525 h 62.4855 62.4855 v 144.4976 c 0,170.2729 7.8107,216.3559 42.9587,251.504 47.6452,47.6452 124.1898,40.6155 153.0894,-13.2781 13.2782,-24.2131 14.8403,-46.0831 14.8403,-205.421 v -178.0836 l 64.8287,2.3432 64.0476,2.3432 2.3432,179.6458 c 0.7811,109.3495 -1.5621,196.0481 -7.0296,221.0423 -20.3078,99.1957 -130.4385,152.3083 -237.4448,114.817 z"
       id="path11"
       style="fill:#08314e;fill-opacity:1;stroke-width:0.781069" />
    <path
       d="m 8267.1534,3881.1398 c -59.3612,-20.3078 -95.2904,-52.3316 -126.5331,-114.036 -26.5563,-51.5505 -27.3374,-56.2369 -27.3374,-139.8113 0,-71.8583 3.1243,-92.9471 17.1836,-122.6277 23.432,-51.5505 67.1718,-96.8525 117.9413,-121.8467 38.2723,-18.7456 53.1126,-21.0888 114.817,-21.0888 54.6748,0 78.1068,3.1243 106.2253,15.6214 39.0535,17.9645 92.9471,62.4854 92.9471,76.5446 -0.781,4.6865 -14.8402,24.2132 -32.0238,42.9588 l -31.2427,34.367 -24.9942,-23.432 c -14.0592,-13.2782 -33.5859,-28.1185 -43.7398,-33.586 -27.3373,-14.0592 -87.4797,-11.716 -121.0656,3.9054 -32.0238,14.8402 -64.0476,63.2665 -68.734,101.5389 l -2.3432,23.432 166.3675,2.3432 165.5865,1.5621 v 61.7044 c 0,54.6749 -3.1242,67.953 -25.7752,111.6929 -51.5506,99.1956 -163.2433,139.8112 -277.2793,100.7578 z m 142.9355,-96.0715 c 22.651,-17.9645 42.9588,-57.799 42.9588,-84.3554 0,-14.8402 -4.6865,-15.6213 -108.5685,-15.6213 h -108.5685 l 7.8107,28.8995 c 3.9053,15.6214 12.4971,36.7102 18.7456,46.0831 28.1184,41.3965 108.5685,55.4558 147.6219,24.9941 z"
       id="path12"
       style="fill:#08314e;fill-opacity:1;stroke-width:0.781069" />
    <path
       d="m 4981.9797,3863.1752 c 2.3432,-10.1539 43.7398,-125.752 91.385,-257.7526 l 85.9175,-240.569 h 71.8583 71.8583 l 89.0418,251.504 c 49.2073,138.2491 90.6039,253.8472 91.385,257.7526 1.5621,3.9053 -28.1184,6.2485 -65.6098,4.6863 l -69.5151,-2.3431 -53.1126,-175.7405 c -28.8996,-96.8524 -55.4558,-181.9889 -58.5801,-189.7996 -3.9054,-10.1539 -24.2132,46.0831 -64.0477,177.3025 l -58.58,192.1429 h -68.7341 c -67.953,0 -68.734,0 -63.2665,-17.1835 z"
       id="path13"
       style="fill:#08314e;fill-opacity:1;stroke-width:0.781069" />
    <path
       d="m 6414.4592,3874.8912 c 0,-3.9054 42.1776,-117.9414 92.9471,-253.8472 l 92.9471,-247.5987 -33.586,-88.2608 c -18.7456,-48.4262 -35.9291,-94.5092 -39.0533,-102.3199 -5.4676,-12.4971 -0.7811,-14.0592 59.3611,-11.716 l 65.6098,2.3432 49.9884,132.7816 c 27.3374,73.4204 85.9175,231.9773 129.6573,353.824 l 79.669,220.2613 h -67.9529 -67.953 l -53.1126,-178.8647 c -29.6807,-99.1957 -55.4559,-178.0836 -57.018,-176.5215 -1.5622,1.5622 -29.6807,82.0122 -61.7044,178.8647 l -57.7991,176.5215 h -66.3908 c -35.9292,0 -65.6097,-2.3432 -65.6097,-5.4675 z"
       id="path14"
       style="fill:#08314e;fill-opacity:1;stroke-width:0.781069" />
  </g>
</svg>
