<?xml version="1.0" encoding="UTF-8" standalone="no"?>
<svg
   version="1.0"
   width="1024.000000pt"
   height="1024.000000pt"
   viewBox="0 0 1024.000000 1024.000000"
   preserveAspectRatio="xMidYMid meet"
   id="svg9"
   sodipodi:docname="park4all.svg"
   inkscape:version="1.4 (86a8ad7, 2024-10-11)"
   xmlns:inkscape="http://www.inkscape.org/namespaces/inkscape"
   xmlns:sodipodi="http://sodipodi.sourceforge.net/DTD/sodipodi-0.dtd"
   xmlns="http://www.w3.org/2000/svg"
   xmlns:svg="http://www.w3.org/2000/svg">
  <defs
     id="defs9" />
  <sodipodi:namedview
     id="namedview9"
     pagecolor="#ffffff"
     bordercolor="#cccccc"
     borderopacity="1"
     inkscape:showpageshadow="0"
     inkscape:pageopacity="1"
     inkscape:pagecheckerboard="0"
     inkscape:deskcolor="#d1d1d1"
     inkscape:document-units="pt"
     inkscape:zoom="0.41794568"
     inkscape:cx="-27.515537"
     inkscape:cy="893.6568"
     inkscape:window-width="1920"
     inkscape:window-height="1009"
     inkscape:window-x="1912"
     inkscape:window-y="-8"
     inkscape:window-maximized="1"
     inkscape:current-layer="g9" />
  <g
     transform="translate(0.000000,1024.000000) scale(0.100000,-0.100000)"
     fill="#000000"
     stroke="none"
     id="g9">
    <path
       d="M 4840,9204 C 4176,9101 3626,8702 3340,8115 3098,7619 3074,7038 3274,6539 c 60,-149 210,-422 331,-604 237,-354 597,-830 1285,-1695 63,-80 140,-178 170,-217 30,-40 60,-72 65,-72 10,0 79,86 575,719 1093,1394 1293,1721 1392,2280 18,102 18,519 0,620 -60,333 -174,601 -366,860 -286,385 -709,649 -1207,756 -109,23 -151,27 -354,30 -168,2 -256,-1 -325,-12 z m 232.2007,-557.4882 c 156,-85 220,-273 148,-433 -38,-81 -116,-155 -188,-177 -29,-8 -59,-15 -68,-15 -14,0 -14,-15 2,-172 9,-95 17,-178 17,-185 1,-9 76,-13 305,-15 l 304,-3 27,-25 c 58,-54 71,-128 35,-188 -36,-58 -58,-62 -368,-62 h -278 l 7,-67 c 5,-38 8,-78 8,-90 l 1,-23 h 374 374 l 29,-24 c 20,-17 50,-72 93,-168 134,-305 262,-593 263,-595 1,0 40,16 87,38 47,21 99,39 115,39 64,0 125,-65 125,-135 0,-58 -25,-83 -144,-140 -159,-76 -210,-95 -260,-95 -75,0 -84,15 -271,438 l -169,382 h -392 c -162.4301,0 -354.422,0 -392,0 l -31.8017,9.5527 c -26.5168,9.2416 -36.1983,55.4473 -41.1983,69.4473 -6,14 -35,272 -65,574 -51,516 -56,551 -79,585 -34,51 -59,155 -52,215 12,95 77,201 154,248 65,40 104,49 193,46 71,-2 94,-8 138,-32 z m -421,-547 c -3,-8 -6,-5 -6,6 -1,11 2,17 5,13 3,-3 4,-12 1,-19 z m 327,-103 c -4,-8 -8,-15 -10,-15 -2,0 -4,7 -4,15 0,8 4,15 10,15 5,0 7,-7 4,-15 z m 23,-317 c -3,-8 -6,-5 -6,6 -1,11 2,17 5,13 3,-3 4,-12 1,-19 z m -406,-125 c 0,-10 6,-70 13,-133 l 13,-115 -36,-29 c -118,-95 -203,-215 -248,-351 -24,-72 -27,-95 -27,-220 0,-125 3,-148 27,-220 38,-115 91,-199 182,-290 194,-195 471,-254 725,-154 83,32 177.5883,100.1215 188.047,113.9157 13.1411,7.9627 174.953,188.0843 211.953,301.0843 12,35 25,64 29,64 8,0 141,-291 141,-310 0,-26 -91,-147 -162,-216 -278,-270 -692,-344 -1042,-185 -197,89 -387,280 -481,484 -142,307 -112,677 78,957 71,104 209,230 320,291 61,34 67,35 68,12 z"
       id="path1"
       sodipodi:nodetypes="ccccccsccccccccccsccccccsccccccccccsscscccccccccccccccccsssccccccccccscccccsscccccc" />
    <path
       d="m 4207,3292 c -16,-17 -17,-86 -17,-789 0,-747 1,-770 19,-787 17,-15 37,-17 146,-14 98,2 128,6 135,18 5,8 10,126 10,265 1,223 2,248 15,230 9,-11 95,-129 193,-262 97,-133 183,-244 189,-247 20,-8 310,-9 323,-1 6,4 10,15 7,25 -2,9 -100,151 -217,314 l -213,297 25,27 c 14,15 105,114 202,221 145,160 176,199 174,220 l -3,26 -132,3 c -73,1 -148,-1 -165,-6 -27,-7 -69,-51 -215,-226 l -183,-217 v 445 445 l -22,15 c -17,12 -50,16 -139,16 -100,0 -118,-3 -132,-18 z"
       id="path2"
       style="opacity:1;mix-blend-mode:darken;fill:#0c3756;fill-opacity:1" />
    <path
       d="m 8337,3292 c -16,-17 -17,-87 -17,-795 0,-757 0,-777 19,-787 33,-17 243,-13 269,6 l 22,15 v 774 774 l -22,15 c -17,12 -50,16 -139,16 -100,0 -118,-3 -132,-18 z"
       id="path3"
       style="opacity:1;mix-blend-mode:darken;fill:#0c3756;fill-opacity:1" />
    <path
       d="m 8928,3299 c -17,-9 -18,-58 -18,-794 0,-765 0,-785 19,-795 30,-15 243,-13 266,4 17,12 18,45 17,792 -2,718 -3,780 -19,792 -21,15 -240,16 -265,1 z"
       id="path4"
       style="opacity:1;mix-blend-mode:darken;fill:#0c3756;fill-opacity:1" />
    <path
       d="m 5952,3223 c -15,-16 -111,-149 -213,-298 -103,-148 -245,-355 -317,-460 l -132,-190 v -120 c 0,-81 4,-125 12,-133 9,-9 108,-12 385,-12 h 373 v -143 c 0,-98 4,-147 12,-155 8,-8 51,-12 128,-12 165,0 160,-5 160,173 v 142 h 84 c 115,0 116,1 116,140 0,94 -3,114 -16,119 -9,3 -54,6 -100,6 h -84 v 463 c 0,402 -2,465 -16,485 -15,21 -21,22 -190,22 h -176 z m 105,-940 c -2,-2 -101,-2 -220,-1 l -215,3 216,313 217,313 3,-312 c 1,-172 1,-314 -1,-316 z"
       id="path5"
       style="opacity:1;mix-blend-mode:darken;fill:#0c3756;fill-opacity:1" />
    <path
       d="m 7359,3241 c -86,-5 -111,-10 -128,-25 -12,-11 -21,-23 -21,-27 0,-8 -69,-194 -412,-1117 -65,-177 -118,-332 -116,-345 3,-21 6,-22 145,-25 126,-2 144,0 160,15 10,10 43,91 73,181 l 55,162 h 297 296 l 57,-171 c 49,-146 61,-172 82,-180 27,-10 252,-13 277,-3 9,3 16,16 16,27 0,19 -487,1355 -530,1454 -13,28 -26,44 -42,47 -50,10 -107,12 -209,7 z m 157,-641 101,-290 h -203 c -112,0 -204,3 -204,7 0,3 43,129 95,279 52,151 95,278 95,284 0,40 28,-27 116,-280 z"
       id="path6"
       style="opacity:1;mix-blend-mode:darken;fill:#0c3756;fill-opacity:1" />
    <path
       d="m 950,3231 -35,-6 -3,-750 c -2,-696 -1,-751 15,-762 23,-18 264,-18 281,-1 9,9 12,82 12,269 v 257 l 188,4 c 172,4 194,7 266,32 221,76 330,230 330,466 0,172 -58,299 -175,385 -64,47 -173,88 -264,99 -75,9 -575,15 -615,7 z m 622,-294 c 80,-39 112,-88 116,-183 6,-115 -27,-182 -112,-227 -36,-18 -61,-22 -198,-25 l -158,-4 v 237 237 l 148,-4 c 137,-4 153,-6 204,-31 z"
       id="path7"
       style="opacity:1;mix-blend-mode:darken;fill:#0c3756;fill-opacity:1" />
    <path
       d="m 2475,2849 c -142,-19 -298,-79 -308,-120 -10,-38 55,-183 87,-195 8,-3 51,6 96,21 120,37 216,50 290,37 99,-18 144,-62 157,-157 l 6,-45 h -164 c -90,0 -192,-5 -227,-10 -141,-23 -238,-85 -290,-184 -24,-46 -27,-61 -27,-156 0,-94 3,-111 28,-162 36,-74 119,-151 188,-173 165,-55 350,-27 456,69 22,20 43,36 47,36 3,0 6,-15 6,-33 0,-18 7,-43 16,-55 14,-20 23,-22 120,-22 58,0 114,5 125,10 18,10 19,24 19,323 -1,358 -10,489 -40,570 -43,114 -124,189 -246,227 -77,23 -239,33 -339,19 z m 322,-719 c -8,-71 -23,-103 -69,-146 -47,-45 -93,-65 -158,-71 -99,-9 -163,27 -180,102 -17,75 27,140 110,163 19,6 95,11 169,11 l 134,1 z"
       id="path8"
       style="opacity:1;mix-blend-mode:darken;fill:#0c3756;fill-opacity:1" />
    <path
       d="m 3850,2849 c -73,-12 -153,-52 -206,-103 l -43,-42 -7,53 c -4,37 -12,57 -25,63 -26,15 -242,13 -257,-2 -9,-9 -12,-146 -12,-555 0,-526 1,-543 19,-553 25,-13 221,-13 255,0 l 26,10 v 315 c 0,207 4,332 12,362 8,32 25,61 57,94 59,61 131,84 237,76 48,-3 78,-1 87,6 33,26 62,242 36,264 -20,16 -116,23 -179,12 z"
       id="path9"
       style="opacity:1;mix-blend-mode:darken;fill:#0c3756;fill-opacity:1" />
    <path
       d="M 4840,9204 C 4176.0408,9100.7376 3626,8702 3340,8115 3098,7619 3074,7038 3274,6539 c 60,-149 210,-422 331,-604 237,-354 597,-830 1285,-1695 63,-80 140,-178 170,-217 30,-40 60,-72 65,-72 10,0 79,86 575,719 1093,1394 1293,1721 1392,2280 18,102 18,519 0,620 -60,333 -174,601 -366,860 -286,385 -708.9294,649.3292 -1207,756 -108.93,23.3293 -150.9963,27.2641 -354,30 -167.9966,2.2641 -255.9587,-1.2623 -325,-12 z m 232.2007,-557.4882 c 156,-85 220,-273 148,-433 -38,-81 -116,-155 -188,-177 -29,-8 -59,-15 -68,-15 -14,0 -14,-15 2,-172 9,-95 17,-178 17,-185 1,-9 76,-13 305,-15 l 304,-3 27,-25 c 58,-54 71,-128 35,-188 -36,-58 -58,-62 -368,-62 h -278 l 7,-67 c 5,-38 8,-78 8,-90 l 1,-23 h 374 374 l 29,-24 c 20,-17 50,-72 93,-168 134,-305 262,-593 263,-595 1,0 40,16 87,38 47,21 99,39 115,39 64,0 125,-65 125,-135 0,-58 -25,-83 -144,-140 -159,-76 -210,-95 -260,-95 -75,0 -84,15 -271,438 l -169,382 h -392 -392 l -31.8017,9.5527 c -16.6376,6.5699 -32.0529,26.8038 -41.1983,69.4473 -6,14 -35,272 -65,574 -51,516 -56,551 -79,585 -34,51 -59,155 -52,215 12,95 77,201 154,248 65,40 104,49 193,46 71,-2 94,-8 138,-32 z m -477,-1092 c 0,-10 6,-70 13,-133 l 13,-115 -36,-29 c -118,-95 -203,-215 -248,-351 -24,-72 -27,-95 -27,-220 0,-125 3,-148 27,-220 38,-115 91,-199 182,-290 194,-195 471,-254 725,-154 83,32 177.5883,100.1215 188.047,113.9157 13.1411,7.9627 174.953,188.0843 211.953,301.0843 12,35 25,64 29,64 8,0 141,-291 141,-310 0,-26 -91,-147 -162,-216 -278,-270 -692,-344 -1042,-185 -197,89 -387,280 -481,484 -142,307 -112,677 78,957 71,104 209,230 320,291 61,34 67,35 68,12 z"
       id="path10"
       sodipodi:nodetypes="scccccsccccssscccsccccccsccccccccccsscscccccccccccccccccscccccsscccccc"
       style="fill:#1e88e5;fill-opacity:1" />
  </g>
</svg>
